<svg width="220" height="55" viewBox="0 0 220 55" fill="none" xmlns="http://www.w3.org/2000/svg">
<path d="M22.4507 15.3269L12.8794 44.5H5.16919L18.2451 9.30859H23.1516L22.4507 15.3269ZM30.4026 44.5L20.8071 15.3269L20.0337 9.30859H24.9885L38.137 44.5H30.4026ZM29.9675 31.3999V37.0798H11.3809V31.3999H29.9675ZM56.4094 38.7959V7.375H63.4187V44.5H57.1104L56.4094 38.7959ZM39.8772 31.7383V31.2307C39.8772 29.2327 40.1028 27.4199 40.554 25.7925C41.0051 24.1489 41.6658 22.739 42.5359 21.5627C43.406 20.3865 44.4775 19.4761 45.7505 18.8315C47.0234 18.187 48.4736 17.8647 50.1011 17.8647C51.6318 17.8647 52.9692 18.187 54.1133 18.8315C55.2734 19.4761 56.2563 20.3945 57.062 21.5869C57.8838 22.7632 58.5444 24.157 59.0439 25.7683C59.5435 27.3635 59.906 29.1118 60.1316 31.0132V32.125C59.906 33.9458 59.5435 35.6377 59.0439 37.2007C58.5444 38.7637 57.8838 40.1333 57.062 41.3096C56.2563 42.4697 55.2734 43.3721 54.1133 44.0166C52.9531 44.6611 51.5996 44.9834 50.0527 44.9834C48.4253 44.9834 46.9751 44.6531 45.7021 43.9924C44.4453 43.3318 43.3818 42.4053 42.5117 41.2129C41.6577 40.0205 41.0051 38.6187 40.554 37.0073C40.1028 35.396 39.8772 33.6396 39.8772 31.7383ZM46.8381 31.2307V31.7383C46.8381 32.8179 46.9187 33.825 47.0798 34.7595C47.2571 35.6941 47.5391 36.5239 47.9258 37.249C48.3286 37.958 48.8442 38.5139 49.4727 38.9167C50.1172 39.3035 50.8987 39.4968 51.8171 39.4968C53.0095 39.4968 53.9924 39.231 54.7659 38.6992C55.5393 38.1514 56.1274 37.4021 56.5303 36.4514C56.9492 35.5007 57.1909 34.405 57.2554 33.1643V29.998C57.207 28.9829 57.062 28.0725 56.8203 27.2668C56.5947 26.4451 56.2563 25.7441 55.8052 25.1641C55.3701 24.584 54.8223 24.1328 54.1616 23.8105C53.5171 23.4883 52.7517 23.3271 51.8655 23.3271C50.9631 23.3271 50.1897 23.5366 49.5452 23.9556C48.9006 24.3584 48.377 24.9143 47.9741 25.6233C47.5874 26.3323 47.2974 27.1702 47.104 28.137C46.9268 29.0876 46.8381 30.1189 46.8381 31.2307ZM75.8179 23.7622V44.5H68.8328V18.3481H75.3828L75.8179 23.7622ZM74.8511 30.5056H72.9175C72.9175 28.6848 73.135 27.009 73.5701 25.4783C74.0212 23.9314 74.6738 22.594 75.5278 21.4661C76.3979 20.322 77.4695 19.4358 78.7424 18.8074C80.0154 18.179 81.4897 17.8647 83.1655 17.8647C84.3257 17.8647 85.3892 18.042 86.356 18.3965C87.3228 18.7349 88.1526 19.2747 88.8455 20.0159C89.5544 20.741 90.1023 21.6917 90.489 22.8679C90.8757 24.0281 91.0691 25.4219 91.0691 27.0493V44.5H84.1082V27.8228C84.1082 26.6304 83.947 25.7119 83.6248 25.0674C83.3025 24.4229 82.8433 23.9717 82.2471 23.7139C81.667 23.4561 80.9661 23.3271 80.1443 23.3271C79.2419 23.3271 78.4524 23.5125 77.7756 23.8831C77.115 24.2537 76.5671 24.7693 76.1321 25.4299C75.697 26.0745 75.3748 26.8318 75.1653 27.7019C74.9558 28.572 74.8511 29.5066 74.8511 30.5056ZM90.4165 29.708L87.927 30.0222C87.927 28.3142 88.1365 26.7271 88.5554 25.2607C88.9905 23.7944 89.627 22.5054 90.4648 21.3936C91.3188 20.2817 92.3743 19.4197 93.6311 18.8074C94.8879 18.179 96.3381 17.8647 97.9817 17.8647C99.2385 17.8647 100.383 18.05 101.414 18.4207C102.445 18.7751 103.323 19.3472 104.048 20.1367C104.79 20.9102 105.354 21.9253 105.74 23.1821C106.143 24.439 106.344 25.9778 106.344 27.7986V44.5H99.3594V27.7986C99.3594 26.5901 99.1982 25.6716 98.876 25.0432C98.5698 24.3987 98.1187 23.9556 97.5225 23.7139C96.9424 23.4561 96.2495 23.3271 95.4438 23.3271C94.606 23.3271 93.8728 23.4963 93.2444 23.8347C92.616 24.157 92.0923 24.6082 91.6733 25.1882C91.2544 25.7683 90.9402 26.4451 90.7307 27.2185C90.5212 27.9758 90.4165 28.8057 90.4165 29.708ZM119.082 18.3481V44.5H112.097V18.3481H119.082ZM111.662 11.5322C111.662 10.5171 112.016 9.6792 112.725 9.01855C113.434 8.35791 114.385 8.02759 115.577 8.02759C116.754 8.02759 117.696 8.35791 118.405 9.01855C119.13 9.6792 119.493 10.5171 119.493 11.5322C119.493 12.5474 119.13 13.3853 118.405 14.0459C117.696 14.7065 116.754 15.0369 115.577 15.0369C114.385 15.0369 113.434 14.7065 112.725 14.0459C112.016 13.3853 111.662 12.5474 111.662 11.5322ZM131.65 23.9314V44.5H124.689V18.3481H131.215L131.65 23.9314ZM130.635 30.5056H128.75C128.75 28.572 129 26.8318 129.499 25.2849C129.999 23.7219 130.7 22.3926 131.602 21.2969C132.504 20.1851 133.576 19.3391 134.817 18.759C136.073 18.1628 137.475 17.8647 139.022 17.8647C140.247 17.8647 141.367 18.042 142.382 18.3965C143.397 18.751 144.267 19.3149 144.992 20.0884C145.733 20.8618 146.297 21.885 146.684 23.158C147.087 24.4309 147.288 25.9858 147.288 27.8228V44.5H140.279V27.7986C140.279 26.6384 140.118 25.7361 139.796 25.0916C139.473 24.447 138.998 23.9958 138.37 23.738C137.757 23.4641 137 23.3271 136.098 23.3271C135.163 23.3271 134.349 23.5125 133.656 23.8831C132.98 24.2537 132.416 24.7693 131.965 25.4299C131.53 26.0745 131.199 26.8318 130.974 27.7019C130.748 28.572 130.635 29.5066 130.635 30.5056Z" fill="#343A40"/>
<path fill-rule="evenodd" clip-rule="evenodd" d="M220 0H165V49.5C165 52.5376 167.462 55 170.5 55H220V0ZM187 10.9999H198V22.0001H209V33.0001H198V43.9999H187V33.0001H176V22.0001H187V10.9999Z" fill="#114C71"/>
</svg>
