<svg xmlns="http://www.w3.org/2000/svg" width="563" height="343.7" viewBox="0 0 563 343.7"><defs><style>.a{fill:#ed1c24;}</style></defs><path class="a" d="M281.5,343.7c-15.9-1.1-31.8-1.7-47.7-3.3-39.7-3.7-78.1-13-114.8-28.8-29.9-12.9-57.4-29.7-80.2-53.2C21.9,241,9.1,221.2,3.3,197.4c-7.8-31.6-1.5-60.9,15.9-88.1,13-20.5,30.4-36.8,50.2-50.6,32-22.2,67.6-36.5,105.3-46,17.6-4.4,35.5-8,53.6-9.6C243.8,1.7,259.4.6,274.9.2a368.7,368.7,0,0,1,37.9.7C356.2,4,398.4,12.6,438.7,29.2,465,40,489.6,53.7,511.2,72.3s36.4,37.4,45.3,62.7c11.2,31.9,7.7,62.6-8.6,91.9-13.2,23.7-32.3,42-54.3,57.3-32,22.3-67.6,36.5-105.3,46.1a396.1,396.1,0,0,1-56.2,10c-14.7,1.4-29.5,1.8-44.3,2.6l-6.2.4Zm-65.6-98.5-10.4,1.2a82.6,82.6,0,0,1-28.5-1.5c-15.9-3.4-29.2-11.1-39.6-23.9a78.2,78.2,0,0,1-17.8-48,101.4,101.4,0,0,1,1.7-17.3A66.8,66.8,0,0,1,137,121.9c12-13.8,27.8-19.5,45.5-20.7,12.6-.8,25.1,1.3,37.4,4.2,6.8,1.7,6.7,1.8,8.1-4.9v-.3c.9-5.3,1.8-10.7,2.6-16.1.2-1.7.3-3.4-2.1-3.8-7.9-1.1-15.8-3-23.7-3.3s-18.2.3-27.3,1A91.6,91.6,0,0,0,146,86.9c-16.1,7.6-28.3,19.7-38.1,34.3a94.4,94.4,0,0,0-15.5,46.5c-.6,11-.2,22,2.5,32.8a88.6,88.6,0,0,0,17.5,35.6,80.2,80.2,0,0,0,24.4,20.5c13.7,7.5,28.5,10.7,43.8,11.7,9,.5,18.1-.1,27.1-.5,10.7-.5,20.9-3.1,31.1-6.2,1.5-.4,2.3-1.1,2.1-2.7-.2-3.5-.4-7-.5-10.5-.3-7.3-.5-14.6-.6-22-.1-5.6,0-11.1,0-16.7,0-2.7,0-5.5.1-8.2.3-6.9.7-13.7.9-20.6a2.9,2.9,0,0,0-2-1.9c-8-.2-16.1-.2-24.1,0-.6,0-1.9,1.3-1.8,1.9.5,7.6,1.6,15.1,1.9,22.7C215.4,217.3,215.5,231,215.9,245.2Zm106-143.6H324l23.2-.5h.6l29.9-1.1c1.5,0,2.2.6,2.2,2.2.2,5.2.6,10.5.6,15.8l-.6,110.4c-.1,10.4-.3,20.8-.6,31.1a9.1,9.1,0,0,1-.3,2.3c-.6,2.3.2,3.3,2.7,3.2,7.5,0,14.9-.1,22.4,0,2.4.1,3.2-.8,3.1-3.1q-.4-9.4-.6-18.9c-.3-9.7-.6-19.4-.6-29.2V102.7c0-2.1.7-2.8,2.8-2.7q9.1.4,18.3.6c5.6.1,11.2-.1,16.8.1s11.8.8,17.7.9a3,3,0,0,0,2.1-2.1c.4-5.5.6-11.1.7-16.6.1-3.8,0-3.8-3.8-3.8H321.9ZM291.8,246.9c3.4-2.4,7.3-4.9,10.9-7.7,6-4.8,11.8-9.9,17.7-14.8a77.9,77.9,0,0,0,16.7-18.6,55.2,55.2,0,0,0,8.8-32.6c-.3-10.7-5.1-19-13.1-25.5s-20.2-9.5-31.6-10.2c-5.6-.3-11.2-.2-16.7,0s-8.4,1.1-12.6,1.7a3,3,0,0,0-2.7,3,119.8,119.8,0,0,1-1.8,13.4c-.6,2.8.7,3,2.6,2.8l9.3-1.1c8.9-1.1,17.8-1.2,26.6,1.2,10.3,2.9,14.6,7.4,16.6,16.8s-.3,16.4-3.6,24.1c-4.7,10.6-13,18.3-21.6,25.4s-18.5,13.8-27.6,20.9a5.4,5.4,0,0,0-2,3.3c-.8,3.9-1.2,7.9-1.9,11.9s-.7,4.1,3.5,4.1H353c.9-5.6,1.7-10.8,2.5-16.1.3-2.2-.5-3.3-3-3.2-7.1.5-14.3,1-21.4,1.1C317.9,247,304.7,246.9,291.8,246.9Z"/></svg>