<?xml version="1.0" encoding="UTF-8"?>
<svg xmlns="http://www.w3.org/2000/svg" version="1.1" viewBox="0 0 511.04 501.69">
  <defs>
    <style>
      .cls-1 {
        stroke: #ed1c24;
      }

      .cls-1, .cls-2, .cls-3, .cls-4, .cls-5 {
        fill: none;
      }

      .cls-1, .cls-3, .cls-6, .cls-7 {
        display: none;
      }

      .cls-1, .cls-3, .cls-4, .cls-5 {
        stroke-miterlimit: 10;
      }

      .cls-8 {
        fill: #e7c4ce;
      }

      .cls-3 {
        stroke: #231f20;
      }

      .cls-6 {
        fill: #00aeef;
      }

      .cls-4, .cls-5 {
        stroke: #006838;
      }

      .cls-9 {
        fill: #006838;
      }

      .cls-5 {
        stroke-width: 3px;
      }
    </style>
  </defs>
  <!-- Generator: Adobe Illustrator 28.6.0, SVG Export Plug-In . SVG Version: 1.2.0 Build 709)  -->
  <g>
    <g id="Layer_5" class="cls-7">
      <rect class="cls-6" y="7" width="511.04" height="494.69"/>
      <rect class="cls-8" x="20.2" y="26.57" width="474.24" height="474.24"/>
    </g>
    <g id="Layer_2">
      <path class="cls-9" d="M39,303.83s28.7,173.74,219.13,179.48,214.56-178.96,214.56-178.96l7.5-4.17s8.35,2.74,10.96.78c0,0,3.98.39,3.2,4.96s-10.3,16.04-13.3,18.39c0,0,5.61,5.61,3.13,8.87s1.43,1.3-5.09,8.22c0,0-.13,3.39-2.35,5.61,0,0,.91,5.35,0,7.83s-.13,6.78-10.96,13.43c0,0,3.13,11.22-.13,15.78s-13.3,8.09-16.43,9c0,0,1.7,4.83.52,6s-3.52,2.74-5.48,3.91c0,0-5.74,3.39-6,6,0,0-2.87,1.96-5.09,2.09,0,0,.52,3,.26,3.91s-.91,1.7-.78,2.35l.13.65s2.09.91.78,2.87-6.91,4.57-9.52,3.91c0,0-6.52,5.15-8.87,7.49s-10.7,7.35-10.43,10.09c0,0-.91,1.85-2.61,3.28s-1.3,10.3-6.91,13.17-9.91-.39-10.17,0,.78,8.61-1.17,8.61-4.04-.78-5.74.52-5.22,2.61-6.78,3.39-4.7,1.83-5.48,2.09-2.22.13-3.39-.26c0,0-3.52-1.83-5.74-.52s-1.7-.13-1.7-.13c0,0-.78,2.35-2.22,3.65s-4.3.52-5.09.52-6,.73-6.91-.05l-6.91,1.88s0,4.43-3.26,5.48-6.65-.65-7.04-.65h-.39s-1.83,8.61-5.61,9.78-10.57-1.17-10.57-1.3-4.43,1.17-6.65,3.78-4.83-2.74-4.83-2.74c0,0-3.65,0-8.09,3.46s-12.26-4.37-12.78-3.46l-2.48-.13-2.22,2.74s-3.65,1.57-7.83.39-5.74-.65-7.17-.91-6.26-3.26-8.22-2.87c0,0-6.65,9.13-10.57,9.52s-8.09-.13-9.91-1.3-1.83-3.52-1.7-5.22-13.57-1.83-13.57-1.83c0,0-2.22,1.96-8.61,3s-10.7-6.26-10.7-6.26c0,0-5.61-3.52-9.26-3.13s-7.43,1.96-11.35,1.17-11.74-11.87-11.74-11.87c0,0-.39-1.17.13-2.22,0,0-5.09.91-9.26-.91s-1.96-5.74-1.96-5.74c0,0-3.52,1.43-7.17.78s-3.26-4.04-4.3-4.96-3.13-1.83-5.61-2.35-4.96,0-6.91-2.87c0,0-.78-4.04.52-5.48s-3-.78-3-.78l-2.74,1.83s-3.52-.13-4.7-.91-3.39-4.96-8.09-5.74-3.65-.65-8.74-3.91-1.57-11.35-1.57-11.35c0,0,0-4.17-2.74-5.09s-8.22-4.96-10.17-5.22.13-3.52.13-3.52c0,0-10.83-7.43-10.7-9.13s-6.91-2.35-6.91-2.35c0,0-4.7-3.13-4.04-6.39s2.35-6.52,2.35-6.52c0,0-17.87-13.96-17.09-16.83s-1.83-9.13.13-10.43-9-5.22-8.87-8.61,1.17-5.87,1.17-5.87c0,0,.13-6.78-.13-9s.78.26-1.04-3.65-4.96-7.96-6.26-9.39-4.04-6.39-3-8.35-2.61-3.13-3.78-3.91-5.09-3.65-4.83-5.61,2.61-4.17,4.04-4.3,5.09-2.09,7.57-3.65,7.17.13,7.17.13Z"/>
      <rect class="cls-1" x=".17" y="215.78" width="512" height="86.61"/>
      <g>
        <path class="cls-9" d="M4.49,257.43c0-9.94,3.05-17.94,9.15-24.01s14.28-9.1,24.53-9.1c9.68,0,17.27,2.73,22.79,8.19,5.52,5.46,8.28,12.77,8.28,21.92,0,5.82-1.09,11.12-3.26,15.9-1.71,3.8-3.92,7-6.63,9.6s-5.48,4.55-8.32,5.82c-4.23,1.88-9.33,2.82-15.3,2.82-9.91,0-17.59-2.74-23.05-8.21s-8.19-13.12-8.19-22.95ZM19.53,255.08c0,10.55,1.91,18.3,5.74,23.25,2.84,3.71,6.91,5.56,12.21,5.56,3.65,0,6.73-.94,9.23-2.82,2.51-1.88,4.38-4.9,5.63-9.06,1.25-4.16,1.87-8.99,1.87-14.49,0-4.2-.38-8.23-1.13-12.08-.75-3.85-1.78-6.87-3.09-9.04s-3.05-3.93-5.24-5.26c-2.19-1.33-4.83-2-7.93-2-3.45,0-6.52.96-9.21,2.89s-4.71,4.95-6.06,9.08c-1.35,4.13-2.02,8.79-2.02,13.97Z"/>
        <path class="cls-9" d="M73.55,228.83v-3.22c9.8.32,15.58.48,17.35.48,1.88,0,4.61-.05,8.18-.15,3.57-.1,6.19-.15,7.87-.15,4.32,0,7.68.55,10.09,1.65,2.41,1.1,4.34,2.85,5.81,5.26,1.46,2.41,2.2,5.08,2.2,8.04,0,2.52-.52,4.95-1.56,7.28s-2.43,4.31-4.17,5.93c-1.13,1.07-2.94,2.23-5.43,3.48,1.97,3.39,4.85,8.19,8.65,14.38,2.78,4.55,4.59,7.27,5.44,8.17.85.9,1.77,1.59,2.75,2.09,1.5.7,4.25,1.36,8.23,2v3.22c-4.92-.32-8.93-.48-12.02-.48-3.27,0-7.29.16-12.07.48-3.53-8.14-8.06-17.46-13.59-27.94-1.67-.06-3.4-.17-5.21-.35l.17,18.08c.06,2.23.25,3.61.56,4.15.32.54.77.92,1.35,1.15.41.2,3,.77,7.78,1.69v3.22c-6.76-.32-12.18-.48-16.27-.48s-9.4.16-16.1.48v-3.22c4.9-.9,7.66-1.59,8.28-2.09.62-.49,1.02-1.46,1.19-2.91.09-.78.14-8.21.17-22.29l-.04-12.95c0-6.08-.1-9.75-.31-10.99-.17-.9-.57-1.57-1.2-2.02s-2.67-.98-6.15-1.59l-1.96-.39ZM96.1,254.08c1.45.06,2.53.09,3.23.09,4.07,0,7.07-.96,9-2.89,1.93-1.93,2.9-4.86,2.9-8.8,0-3.71-.92-6.54-2.75-8.5-1.83-1.96-4.31-2.93-7.45-2.93-1.28,0-2.93.1-4.97.3l.04,22.73Z"/>
        <path class="cls-9" d="M193.92,275.33l2.22,4.17c-5.01,3.3-9.64,5.64-13.88,7.02-4.24,1.38-8.68,2.06-13.32,2.06-9.79,0-17.49-2.79-23.1-8.37-5.61-5.58-8.41-13.09-8.41-22.53,0-10.02,3.16-18.09,9.47-24.21,6.32-6.11,15.05-9.17,26.2-9.17,3.56,0,7,.28,10.32.85,3.32.56,7.42,1.62,12.32,3.15-.17,1.88-.26,3.84-.26,5.87,0,3.51.22,7.79.65,12.86h-4.78c-1.45-5.56-2.41-8.82-2.87-9.78-1.07-2.17-2.83-4.01-5.28-5.52-2.45-1.51-5.76-2.26-9.93-2.26-6.34,0-11.24,1.94-14.69,5.82-4.17,4.67-6.26,11.11-6.26,19.34s2.08,15,6.24,19.45c4.16,4.45,9.76,6.67,16.8,6.67,6.26,0,12.44-1.81,18.56-5.43Z"/>
        <path class="cls-9" d="M201.57,228.83v-3.22c4.81.32,9.26.48,13.34.48,2.78,0,8.3-.16,16.56-.48v3.22c-2.72.58-4.53,1.25-5.43,2-.55.43-.83.97-.83,1.61,0,.38.04.78.13,1.22.09.32,1.26,3.91,3.53,10.78l7.66,22.95c1.36-3.28,4.63-11.73,9.81-25.37-1.74-4.77-2.92-7.7-3.54-8.78-.62-1.08-1.3-1.85-2.04-2.3-.74-.45-2.69-1.15-5.85-2.1v-3.21c7.08.32,12.16.48,15.23.48s7.95-.16,14.8-.48v3.22l-1.04.26c-2.93.67-4.65,1.21-5.16,1.63-.51.42-.76.95-.76,1.59,0,.32.04.7.13,1.13l5.08,15.82c1.97,6.14,3.95,12.02,5.95,17.64,7.34-21.35,11.02-32.91,11.02-34.68,0-.58-.28-1.09-.83-1.52-.55-.43-2.56-1.06-6.04-1.87v-3.22c4.37.32,7.85.48,10.43.48,1.8,0,5.61-.16,11.43-.48v3.22c-3.22.61-5.32,1.32-6.32,2.13-1,.81-1.95,2.52-2.85,5.13-.61,1.85-1.85,5.23-3.74,10.13-3.8,9.94-8.84,24.06-15.13,42.37h-4.02c-2.82-9.14-7.45-22.02-13.89-38.65-5.87,14.89-10.76,27.77-14.66,38.65h-4.05l-11.18-31.55c-4.93-13.44-7.93-21.22-9-23.34-.55-1.13-1.16-1.94-1.82-2.43-.93-.72-3.23-1.54-6.91-2.43Z"/>
        <path class="cls-9" d="M296.22,257.43c0-9.94,3.05-17.94,9.15-24.01s14.28-9.1,24.53-9.1c9.68,0,17.27,2.73,22.79,8.19,5.52,5.46,8.28,12.77,8.28,21.92,0,5.82-1.09,11.12-3.26,15.9-1.71,3.8-3.92,7-6.63,9.6s-5.48,4.55-8.32,5.82c-4.23,1.88-9.33,2.82-15.3,2.82-9.91,0-17.59-2.74-23.05-8.21s-8.19-13.12-8.19-22.95ZM311.26,255.08c0,10.55,1.91,18.3,5.74,23.25,2.84,3.71,6.91,5.56,12.21,5.56,3.65,0,6.73-.94,9.23-2.82,2.5-1.88,4.38-4.9,5.63-9.06,1.25-4.16,1.87-8.99,1.87-14.49,0-4.2-.38-8.23-1.13-12.08-.75-3.85-1.78-6.87-3.08-9.04-1.3-2.17-3.05-3.93-5.24-5.26-2.19-1.33-4.83-2-7.93-2-3.45,0-6.52.96-9.21,2.89s-4.71,4.95-6.06,9.08c-1.35,4.13-2.02,8.79-2.02,13.97Z"/>
        <path class="cls-9" d="M368.58,257.43c0-9.94,3.05-17.94,9.15-24.01s14.28-9.1,24.53-9.1c9.68,0,17.27,2.73,22.79,8.19,5.52,5.46,8.28,12.77,8.28,21.92,0,5.82-1.09,11.12-3.26,15.9-1.71,3.8-3.92,7-6.63,9.6s-5.48,4.55-8.32,5.82c-4.23,1.88-9.33,2.82-15.3,2.82-9.91,0-17.59-2.74-23.05-8.21s-8.19-13.12-8.19-22.95ZM383.61,255.08c0,10.55,1.91,18.3,5.74,23.25,2.84,3.71,6.91,5.56,12.21,5.56,3.65,0,6.73-.94,9.23-2.82,2.5-1.88,4.38-4.9,5.63-9.06,1.25-4.16,1.87-8.99,1.87-14.49,0-4.2-.38-8.23-1.13-12.08-.75-3.85-1.78-6.87-3.08-9.04-1.3-2.17-3.05-3.93-5.24-5.26-2.19-1.33-4.83-2-7.93-2-3.45,0-6.52.96-9.21,2.89s-4.71,4.95-6.06,9.08c-1.35,4.13-2.02,8.79-2.02,13.97Z"/>
        <path class="cls-9" d="M438.15,228.83v-3.22c6.75.32,12.33.48,16.73.48,3.36,0,8.01-.09,13.95-.26,4.32-.14,7.92-.22,10.82-.22,5.45,0,9.76.7,12.95,2.09,4.4,1.91,7.86,4.85,10.37,8.82,2.5,3.97,3.76,9.11,3.76,15.43,0,7.01-1.64,13.25-4.91,18.71-3.27,5.46-7.88,9.73-13.82,12.8-4.96,2.58-10.97,3.87-18.04,3.87-.67,0-3.36-.09-8.08-.28-4.72-.19-7.37-.28-7.95-.28-2.03,0-7.29.17-15.78.52v-3.22l1.83-.35c3.81-.67,6.05-1.29,6.7-1.87.65-.58,1.04-1.43,1.16-2.56.12-1.68.17-10.47.17-26.38,0-11.67-.12-18.25-.35-19.73-.15-1.01-.51-1.75-1.09-2.22-.58-.46-2.78-1.04-6.61-1.74l-1.83-.39ZM461.49,281.5c3.51.58,6.45.87,8.82.87,6.66,0,11.69-1.97,15.08-5.91,4.32-5.04,6.47-12.36,6.47-21.95,0-8.23-1.91-14.47-5.74-18.73-3.1-3.48-7.95-5.21-14.56-5.21-2.78,0-6.14.28-10.08.83-.29,4.52-.43,12.91-.43,25.16,0,7.04.14,15.36.43,24.94Z"/>
      </g>
      <g>
        <path class="cls-5" d="M46.83,302.32c.28.83,1.42,4.36,1.56,5.22.08.48-.03,1.05.08,1.5.25,1.08.89,2,1.08,3.13.2,1.21.32,2.38.6,3.59.18.74.54,2,1.02,2.6,1.07,1.34,2.42,2.33,2.9,4.18.77,2.98.13,6.47,1.58,9.26.56,1.07,1.47,1.92,1.97,3.08.55,1.27,1.07,2.48,1.67,3.73s.75,2.69,1.14,4.05c.23.8.65,1.51.81,2.34.18.9-.15,2.01.19,2.84.38.93,1.23,1.87,1.69,2.82.64,1.29,1.25,2.6,1.92,3.87.76,1.44,1.64,2.87,2.58,4.18s1.34,8.99,2.53,11.35c.38.74,2.21,4.01,2.54,4.61.42.74,3.34,3.56,3.57,4.78.19.99.07,1.09.46,1.79.17.31,1.32,2.67,1.67,3.48.46,1.07,4.14-.2,5.04.49,1.3,1.02,2.01,2.49,2.98,3.82.86,1.18,1.72,2.2,2.67,3.28s1.58,2.54,2.56,3.67,2.1,2.11,3.21,3.17c1.49,1.42,2.53,3.5,3.47,5.29.83,1.59,1.64,3.3,2.56,4.86,1.2,2.03,2.95,3.71,4.53,5.44.31.34.72,1.15,1.14,1.34.48.22.93-.05,1.42.15,1.13.47,2.02,1.76,3.18,2.34,1.39.69,2.26,1.81,3.48,2.75,1.37,1.06,2.6,1.94,3.83,3.19,1.12,1.15,1.25,1.42,8.46,6.6,1.81,1.3,3.57,2.18,5.56,3.1,1.65.77,3.65,1.72,4.89,3.11,1.1,1.23,1.98,2.67,3.07,3.92,1.53,1.76,3.22,2.72,5.15,3.85.98.58,1.59,1.33,2.36,2.03.43.39,1.19.76,1.71,1.19,2,1.68,4.58,2.03,6.92,2.98.93.37,1.87.56,2.75,1.02.78.41,1.39,1.1,2.2,1.49s1.77.41,2.54.59c1.29.31,2.4.91,3.6,1.45,1.38.63,2.88.96,4.24,1.65,2.37,1.2,4.67,2.54,7.06,3.76,2.16,1.1,4.41.91,6.63,1.9,3.02,1.35,6.31,2.53,9.56,3.1.9.16,1.82-.05,2.72.12,1.39.26,2.76,1.09,4.21,1.36,1.7.32,3.41.93,5.11,1.12,3.44.39,6.96-.47,10.24.99,1.72.77,2.79,1.85,4.66,2.12.72.1,1.35.5,2.06.57,1.07.11,2.16-.35,3.2-.56,3.93-.79,8-1.68,11.96-.66,3.09.8,5.72,1.6,8.98,1.06,1.99-.33,1.71-1.38,3.75-1.39,2.91-.01,7.72,1.54,10.63,1.51,2.27-.02,4.38.47,6.59.53,1.43.04,2.87-.01,4.3-.01,2.71,0,5.43-.01,8.14,0,1.08,0,2.46.23,3.52-.1.76-.24,1.32-.81,2.11-.96,1.47-.27,3.37.02,4.84.02,3.07,0,7.14.75,9.96-.48,1.66-.73,3.12-1.85,4.84-2.49,1.86-.69,3.78-.85,5.69-1.3,3.67-.86,7.43-2.34,10.88-3.87,4.25-1.88,8.41-3.46,12.98-4.41,2.34-.48,4.33-.92,6.74-.9,1.15,0,2.67-.34,3.52.47,1.32-2.13,2.71-3.66,4.71-5.21,1.18-.91,1.67-.99,3.13-.96,3.19.06,5.72-1.95,8.25-3.64.83-.56,1.77-.95,2.52-1.61.84-.74,1.08-1.35,1.67-2.37.67-1.16,1.48-1.92,2.36-2.87,1.15-1.24,1.71-1.93,3.3-2.57,1.59-.64,3.15-1.19,4.59-2.16,3.95-2.67,7.81-5.52,11.01-9.13,1.79-2.02,4.75-2.8,6.88-4.48s4.38-1.9,5.7-4.32c.45-.83,1.25-1.87,2.08-2.41.75-.49,1.67-.62,2.42-1.15s.99-1.26,1.63-1.87c1.11-1.06,2.32-1.89,3.61-2.68,1.13-.69,2.65-1.93,3.47-2.96.61-.78,1.02-1.62,1.67-2.38.46-.54.87-.86,1.17-1.52.59-1.27.36-2.66,1.26-3.78.96-1.19,2.46-2.06,3.64-2.98,1.46-1.14,2.51-2.35,3.31-3.98.74-1.53,1.1-3.14,1.78-4.68s2.17-2.46,3.21-3.82c.83-1.09,1.59-2.24,2.46-3.3,1.2-1.48,2.7-2.62,3.83-4.17s2.33-3.25,3.45-4.84c.59-.83.41-.66.55-1.57.08-.51-.13-.95.03-1.46.41-1.3,1.63-2.67,2.42-3.75,1.09-1.49,2.46-2.74,2.69-4.58.1-.83.01-1.81,0-2.64-.01-1.16-.54-2.08-.59-3.19-.11-2.26,2.12-4.63,3.41-6.23.77-.96,1.62-1.75,1.85-2.98.16-.87-.18-1.8.03-2.72.93-4.15,3.4-7.55,5.4-11.18.66-1.19,1.82-2.84,2.16-4.16.21-.84.04-1.75.17-2.62.34-2.23.86-4.62,1.55-6.77.66-2.04,1.76-3.39,2.87-5.16.28-.44.57-1.06.74-1.55.55-1.56.86-4.03,1.21-5.54.31-1.38,1.04-1.14,1.15-2.6.05-.68.2-1.84.04-2.45"/>
        <path class="cls-5" d="M56.58,302.36c.36.74.97,2.13,1.32,2.87.5,1.06.83,2.07,1.38,3.08.65,1.2,1.35,2.7,1.52,4.03.1.82-.22,1.79-.04,2.58.13.57.76,1.1.93,1.61.28.84.33,1.15.75,1.9.48.86,1.04,1.7,1.41,2.57.27.64.7,1.37.9,2.04.16.55-.05,1.03.07,1.55.1.43.46.53.56.97.18.75.03,1.55.22,2.32.2.82.58,1.52.91,2.29.66,1.52,1.31,3.01,1.89,4.58.64,1.75,1.27,3.32,2.17,4.98.67,1.23.9,2.42,1.5,3.68s1.21,2.46,1.92,3.56c.82,1.28,2.03,2.67,2.69,4.07.6,1.26,1.22,2.76,1.38,4.06.2,1.59-1.26,2.72-.23,4.03,1.5,1.9-1.74,5.22-.98,7.5.48,1.45,2.11,3.58,2.83,4.91.93,1.71,2.03,3.54,2.43,5.37.37,1.69,6.45,1.33,7.63,2.52,1.51,1.52,2.71,4.42,4.27,5.87,1.81,1.68,5.08,1.16,6.4,3.29.53.86.83,1.77,1.24,2.68.55,1.21.59,1.57.88,2.92s.85,3.28,2.05,4.07c.62.41,1.29.47,1.98.71,1.63.57,1.7,4.12,2.84,5.38,1.43,1.59,2.38,3.54,3.83,5.09.7.75,1.41,1.55,2.3,2,.74.38,3-.19,3.72.19,1.52.8,1.86,2.65,3.16,3.8,1.41,1.25,3.03,2.14,4.78,2.89,2.68,1.16,4.01,4.33,6.35,5.93,1.72,1.18,4.19,1.73,6.11,2.64,2.25,1.06,3.56,3.07,5.36,4.8s4,2.34,5.06,4.49c1.35,2.73,5.09,2.4,7.72,3.82,1.69.92,3.44,1.68,5.08,2.67,2.06,1.25,4.17,1.44,6.41,2.07.67.19,1.18.7,1.84.89.61.18,1.28.06,1.89.18,1.64.33,3.82,1.23,5.37,1.94,2.06.94,4.74,1.44,6.48,2.93.84.72,1.29,1.59,2.28,2.2.87.54,1.87.98,2.82,1.39,1.31.56,2.71.89,4.09,1.27,1.17.33,1.96.21,3.13.35.97.12,1.81.51,2.83.54.9.03,1.73-.07,2.62.1,2.47.49,5,1.44,7.53,1.41,1.6-.02,3.21,0,4.81,0,1.73,0,2.82.52,4.55.51,2.76-.02,5.53-.08,8.29-.01,2.11.05,4.12.9,6.21,1.04,3.49.23,7.03-.41,10.38.48,1.29.34,2.5.88,3.84,1.17,1.92.42,3.65.36,5.61.37,2.67.02,5.07-.45,7.57-1.04,1.43-.34,2.71.44,4.08.55,1.62.12,3.2.46,4.83.51,3.42.11,6.89-.05,10.23-.57,1.14-.18,2.27-.67,3.37-.98,1.55-.44,2.9-.52,4.5-.51,2.44.01,5.17.35,7.57-.1,1.59-.3,2.96-.88,4.44-1.44,1.23-.47,2.49-.61,3.77-1,3.08-.94,6.03-1.97,9.08-3.06,2.44-.87,4.65-1.92,7.1-2.52,1.25-.31,3.44.3,4.69-.12,2.04-.68,4.05-1.41,6.09-2.07.97-.32,4.81-.25,6.4-.4,1.68-.16,3.01-1.86,4.69-1.99,2.09-.17,3.46-1.78,4.58-3.47s1.98-2.91,4-3.18c1.13-.15,1.98.16,3.07-.35,1.23-.57,2.32-1.45,3.44-2.19,3.21-2.11,5.08-5.42,7.92-7.92,1.53-1.35,3.23-1.78,5.01-2.73,1.05-.56,1.81-1.26,2.97-1.59.98-.28,1.58-.36,2.48-.97,2.26-1.54,4.47-3.01,6.62-4.72,4.32-3.44,8.72-6.73,12.71-10.54,1.88-1.79,2.87-3.67,5.17-4.97,4.05-2.28,7.71-6.12,10.48-9.87,1.3-1.76,3.05-3,4.51-4.62.62-.69.93-1.38,1.43-2.2.7-1.15,1.58-2.18,2.3-3.29.47-.72.77-1.54,1.27-2.24s1.16-.89,1.67-1.44c.22-.24.45-1.1.55-1.28.51-.85,1.39-1.42,2.03-2.16,1.35-1.57,2.21-3.46,3.23-5.25.74-1.3,1.44-2.84,2.48-3.93,1.42-1.47,2.33-1.8,3.65-3.4.86-1.05.77-2.22,1.04-3.42.08-.35.4-.78.44-1.13.09-.8,1.03-1.3.95-1.99-.14-1.11-.08-2.3-.06-3.43.04-2.31.81-3.59,2.03-5.46.81-1.25,1.68-2.55,2.38-3.85.65-1.2,1.03-2.47,1.58-3.74s1.18-2.65,1.54-4.01c.17-.65.1-1.48.2-2.11.21-1.39.14-3.8.25-5.21.15-1.92.91-2.15,2.4-3.48,1.31-1.17,1.94-3.5,2.2-5.26.24-1.63,5.3-11.82,5.67-13.38.45-1.89,3.39-4.96,3.7-6.86"/>
        <path class="cls-3" d="M68.63,302.29c0-.11,0,3.71,0,3.6,0,2.35.03,4.65.64,6.95.45,1.73.87,5.27,2.41,6.36.82.58,1.65.57,2.34,1.44.46.58.9,1.56,1.12,2.26.47,1.49.66,3.13,1.17,4.61.29.86,1.06,1.34,1.37,2.27.51,1.56,1.24,2.57,2.07,3.99.62,1.06,1.49,1.95,2.11,3.05.56.99,1.79,2.42,2.08,3.51"/>
        <path class="cls-4" d="M111.39,389.03c2.58,1.99,4.13,4.25,5.66,7.05,1.05,1.92,1.11.36,3.36.91,1.34.33,2.17.51,3.05,1.6,1.11,1.36,2.38,2.64,3.6,3.95,1.66,1.79,3.43,3.64,5.23,5.26,1.39,1.24,2.08,3.03,3.31,4.39,1.67,1.85,3.08,2.76,5.31,3.97,1.31.71,2.35,1.78,3.59,2.57s2.7,1.35,4.03,1.97c2.64,1.23,5.03,2.81,7.68,4.03,1.19.55,2.34,1.15,3.55,1.63,1.54.61,2.73,1.62,4.19,2.29,1.2.55,2.9.89,4.17,1.05.95.12,1.7-.05,2.61.3,1.54.6,2.73,1.93,4.2,2.66,1.29.64,2.05,1.34,3.16,2.3,1.35,1.16,2.77,2.41,4.56,2.82,1.66.38,3.08.74,4.7,1.37,2.25.88,4.32,1.89,6.44,3.03,1.81.98,4.1.6,6.23.6,1.23,0,2.49-.08,3.71-.02,1.46.07,2.99.74,4.39,1.15,3.03.89,6.09,1.84,9.29,1.89,1.17.02,2.34-.02,3.51,0,1.81.03,3.14-.57,4.86-.93,1.54-.32,3.14.04,4.7-.06,2.36-.15,4.52-.54,6.91-.51,2.14.03,4.06-.5,6.17-.78s4.4-.48,6.56-.7c1.75-.17,3.88-.22,5.63,0,3.44.44,6.91.68,10.42.49,1.66-.09,3.23-.55,4.91-.54,2.16.01,4.12.38,6.23.54,1.48.11,3.01-.07,4.5-.04,1.34.03,2.58.46,3.91.54,1.78.11,4.14.24,5.91-.04,1.61-.26,2.91-1.43,4.33-2.02,2.09-.86,4.75-.78,7.04-1.11,4-.57,7.7-1.97,11.65-2.76,1.84-.37,3.51-.66,5.39-.64,1,0,2.18.21,3.15.02.69-.13.93-.36,1.58-.54,1.33-.36,2.48.09,3.87-.46,1.98-.79,3.69-1.73,5.5-2.82,1.2-.72,2.34-1.54,3.51-2.33.66-.45,1.58-.86,2.13-1.42.38-.39.53-.88.97-1.25s.96-.48,1.45-.73c.76-.4,1.38-.98,2.07-1.51.57-.44,1.13-.93,1.79-1.23.78-.34,1.69-.38,2.44-.84,1.46-.9,2.83-2.86,4.06-4.09,1.43-1.43,3.15-2.29,4.74-3.51.49-.37,1.06-1.09,1.63-1.42.76-.44,1.62-.55,2.41-.92.65-.31,1.08-.7,1.64-1.16.9-.74,1.95-1.26,2.84-2.01,1.62-1.34,2.9-3.04,4.58-4.34,1.15-.89,2.45-1.11,3.72-1.8,2.77-1.5,5.31-3.47,8.07-4.93,2.95-1.56,6.26-2.08,8.29-4.99.82-1.18,1.75-2.19,2.28-3.52.17-.42.44-1,.54-1.42.11-.45-.05-1.09.08-1.5.46-1.48,3.54-1.82,4.09-3.35"/>
        <path class="cls-4" d="M427.09,333.87c.01-1.4,2.25-6.71,2.85-8.03.46-1.03,1.08-1.99,1.58-3.01.44-.91.59-2.21,1.09-3.07s1.47-1.29,2-2.11c.39-.6.49-1.3.84-1.91.51-.89,1.38-1.28,2.06-1.97.75-.75.63-1.51.61-2.51s2.16-7.53,2.41-8.38"/>
        <path class="cls-4" d="M78.28,302.28c.03,1.29.68,8.93.57,10.19-.07.81-.5,1.45-.56,2.28-.1,1.54.75,1.82,1.66,2.88,1.12,1.3,1.6,2.63,2.29,4.18,1.28,2.88,2.71,5.72,3.94,8.5.55,1.24.77,2.3,1.78,3.27"/>
        <path class="cls-4" d="M122.48,386.2c.23.89.54,1.49.64,2.35.14,1.21.02,1.65.88,2.66,1.11,1.31,2.8,1.17,4.31,1.72,2.04.74,3.53,2.21,4.47,4.05.72,1.43,1.61,2.43,2.65,3.6,1.38,1.57,2.53,3.6,3.96,5.07s3.57,2.2,5.38,2.99c2.13.93,4.12,2.08,5.85,3.54,3.24,2.74,6.4,4.79,10.31,6.5,4.4,1.92,8.55,4.32,12.7,6.42,1.92.97,4.04,1.85,6.02,2.76,2.09.96,3.77,2.55,5.57,3.89,1.15.85,2.8,1.43,4.07,1.74.66.16,1.27.21,2.02.24,1.77.06,3.74.79,5.5,1.15s3.59.45,5.36.87c.96.23,1.54.8,2.36,1.03,2.27.64,5.28-.41,7.48-.55,2.35-.14,4.76,0,7.04.41,2.56.46,5.66.21,8.28.12,1.42-.05,2.67-.49,4.1-.53s2.9.01,4.35.01c1.16,0,2.32,0,3.48.01,2.14.02,4.03-.66,6.11-.96s4.04-.44,6.06-.54c1.19-.06,2.31-.73,3.52-.54,1.12.17,2.23.62,3.27,1.03,2.21.86,4.88.87,7.21.99.93.05,1.43.3,2.27.43,1.15.18,2.12-.25,3.2-.55,1.35-.38,2.52-.37,3.93-.36,2.84.01,5.69,0,8.53,0,2.59,0,4.92.32,7.24-.88s5.72-1.47,8.27-1.16c1.89.23,3.45.78,5.45.45,2.74-.45,5.53-1.64,8.18-2.43,3.06-.92,6.35-2.68,9.67-2.03,1.14.22,1.35.66,2.5.18,1.39-.58,2.43-1.59,3.72-2.29,1.06-.57,1.78-1.44,2.82-2.03.84-.48,1.78-.83,2.65-1.36,1.81-1.09,3.78-2.27,5.65-3.11s3.67-1.61,5.57-2.38c2.1-.86,2.43-2.19,4.07-3.44.89-.68,2.03-1.05,2.8-1.88.97-1.06,1.8-2.2,2.81-3.24,1.08-1.12,1.73-2.37,3.07-3.3,1.27-.89,2.58-2.04,3.94-2.77.88-.47,1.74-.39,2.64-.81.7-.32,1.33-.69,2.03-1.01,1.37-.62,1.32-.71,2.45-1.81,1.32-1.28,1.81.21,2.99-1.28.86-1.09-.41-2.33.92-2.74,2.26-.69,3.06-2.18,4.81-3.86.75-.72,1.37-.94,2.17-1.48.58-.4.95-.99,1.5-1.41.83-.63,2.03-1.03,2.44-2.09"/>
        <path class="cls-4" d="M420.9,320.78c.16-1.57,1.65-2.85,2.5-4.06,1.48-2.11,2.49-3.69,3.35-5.98.45-1.22,1.22-2.01,1.28-3.26.05-.99.63-4.43,1.43-5.15"/>
        <path class="cls-4" d="M418.69,302.89c-.35.75-2.85,7.76-2.77,8.56.06.62.57.93.5,1.8-.14,1.75-1.06,3.05-2.33,4.22-.44.4-1.07.66-1.43,1.16-.5.7-.36,1.28-.38,2.14"/>
        <path class="cls-4" d="M371,385.57c-.85,1.29-2.39,2.83-3.79,3.51-1.75.86-4.04.78-5.34,2.46-.57.74-.59,1.58-1.01,2.39-.69,1.33-1.65,2.41-3.01,3.05-.86.4-1.51.61-2.26,1.21-.93.73-2.21,1.12-3.04,1.88-.59.54-.73,1.43-1.07,2.11-.61,1.22-1.56,2.43-2.54,3.38-1.07,1.03-2.48,2.96-4.09,3.12-.79.08-1.32-.43-2.05-.57-1-.19-1.62.2-2.36.75-1.34,1-3.14,2.86-4.57,3.3-.28.09-.69-.03-1,.02s-.31.34-.6.41c-.86.2-1.59.41-2.46.68-2.17.66-4.39,1.17-6.51,1.99-.58.22-.93.72-1.49.91-.22.07-1.18.04-1.27.06-1.03.19-2.03.72-2.94,1.19-.96.5-1.87,1.06-2.7,1.75-.65.53-1.17,1.34-1.91,1.71-.84.43-1.65.17-2.57.4-1.57.39-3.03.39-4.71.39-2.05,0-3.8.05-5.77.56-.84.22-1.26.43-2.15.44-1.15.01-1.72.32-2.77.53-1.65.32-3.52-.35-5.17-.06-1.3.22-2.06,1.04-3.46,1.07-2.02.05-3.35.34-5.2,1.25-2.17,1.05-3.66.89-5.77.02-1.18-.48-2.52-.24-3.77-.4-2.88-.36-5.44-.64-8.3.09s-6.02,1.56-9.02,2.06c-.74.12-1.08-.13-1.63-.38-1.04-.47-2.02-.95-3.14-1.29-5.22-1.6-10.87-1.51-16.33-1.39-1.43.03-2.75.48-4.18.54-2.19.1-4.43-.02-6.62-.02h-7.7c-1.94,0-4.2-.33-6.09.11-1.76.41-3.62.59-5.48.41s-3.6-1.18-5.38-1.65c-3.36-.89-6.83-1.39-10.2-2.25s-6.72-1.96-9.68-3.64-5.64-3.57-8.63-5.04c-3.92-1.94-8.45-2.16-12.66-3.1-2.73-.61-5.7-2.5-6.79-5.11-.5-1.2-1.9-1.96-2.52-3.11s-3.61-1.67-4.52-2.58c-1.28-1.28-2.82-2.68-4.32-3.8-1.42-1.05-2.57-2.01-3.72-3.35-.98-1.14-2.25-2.32-3.48-3.15-1.28-.87-2.51-1.58-3.62-2.71"/>
        <path class="cls-4" d="M92.61,324.33c-.91-1.35-1.03-2.76-1.66-4.2-.53-1.22-1.39-2.01-1.44-3.36-.04-.99-.14-1.37-.56-2.24-.47-.99-.93-1.8-.98-2.89-.05-1.02.19-8.3-.03-9.3"/>
        <path class="cls-4" d="M96.97,302.33c0,.8,1.53,7.24,1.63,8.03.15,1.15,2.2,3.12,2.44,4.21"/>
        <path class="cls-4" d="M148.35,385.57c.83,1.83,4.59,3.33,5.13,5.18.73,2.53,5.25,4.97,6.8,7.34.69,1.05,1.74,1.48,2.78,1.99.79.39,1.51.83,2.27,1.27.82.48,1.64,1.28,2.48,1.68.99.46,2.72.93,3.82,1.1,1.63.26,3.22.77,4.89,1.05s3.28.78,4.8,1.45c1.14.51,1.64,1.3,2.59,1.95,1.83,1.26,4.32,1.35,6.51,1.55,1.12.1,2.17.71,3.15.97s2.44.06,3.51.04,1.58.36,2.53.52c.58.1,1.12-.15,1.69.08.48.2.81.69,1.39.86.83.25,1.94.23,2.7.64.3.16.41.64.71.81.33.18,1.09.27,1.43.35.98.24,2.1.39,3.16.64,2.19.52,4.31-.34,6.48-.41,1.82-.05,3.39.46,5.15.55,1.93.1,3.58.68,5.53.92,2.47.31,4.24.64,6.69.17,1.93-.37,4.52-.34,6.46-.15,1.04.1,1.73.66,2.68.94s2,.34,2.94.49c2.09.33,3.79-.3,5.81-.4,1.85-.09,3.73.01,5.58.01,3.22,0,6.01-.26,9.17-.87,4-.77,7.82-2.01,11.71-3.2,1.32-.4,2.66-.46,4.01-.71,1.15-.21,2.21-.44,3.39-.16,1.26.29,2.26.91,3.6.95,1.04.04,2.09-.04,3.13-.01,3.02.06,6.38-1.23,9.13-2.43,1-.44,1.8-.51,2.89-.64,1.65-.2,3.12-.96,4.78-.98,1.01-.01,1.7-.17,2.67-.37,1.31-.27,2.62.06,3.93-.13,1.71-.24,3.68-1.14,5.29-1.72,1.76-.64,3.33-1.66,5.05-2.41,1.6-.69,3.21-1.44,4.82-2.09.87-.35,1.91-.38,2.72-.87,2.02-1.24,3.48-2.23,5.43-3.59,1.51-1.06,3.26-1.7,4.84-2.6,1.24-.7.73-2.96,1.94-3.77.94-.63,1.45-.32,2.04-1.29s.99-.5,1.64-1.35"/>
        <path class="cls-4" d="M386.72,322.79c1.47-3.47,1.63-1.85,4.87-3.79,1.75-1.05,3.8-1.32,5.21-2.84,1.5-1.61,2.57-3.87,3.18-5.94.25-.84.61-1.62,1.03-2.39.31-.56,1.13-4.25.91-4.95"/>
        <path class="cls-4" d="M160.86,384.04c1.94-.31,4.33,2.46,5.58,3.53,1.37,1.17,3.05,2.5,4.22,3.86.74.87,1.26,1.94,1.9,2.77.9,1.18,2.31,1.75,3.58,2.39,1.68.83,3.52,2.04,5.34,2.52,2.73.71,5.24,1.91,7.89,2.9,2.1.78,4.06,1.59,6.1,2.51,1.07.48,2.11.62,3.27.63,2.26.01,4.28.26,6.51.49,2.11.21,4.12.52,6.25.51,1.63-.01,3.53-.24,5.14.04,1.49.26,2.72.45,4.24.47,2.69.03,4.67-.63,7.17-1.51s5.6-2.48,8.3-2.04c1.16.19,1.81,1,2.94,1.31,1.46.41,3.05.24,4.55.24,3.34,0,6.34-1.74,9.66-2.04,3.71-.34,7.3.74,10.97.56,3.33-.16,6.6-1.1,9.93-1.06,1.74.02,3.05-.23,4.76-.45,1.49-.19,2.89-.14,4.39-.42.92-.18,1.73-.16,2.62-.44,1.29-.4,2.38-1.28,3.65-1.75,1.75-.65,3.58-.44,5.41-.44,2.17,0,4.45.24,6.6-.08,2.87-.42,5.83-1.55,8.31-3.03,3.5-2.1,7.14-4.19,10.97-5.43,1.22-.4,4.03.48,3.57-1.51"/>
        <path class="cls-4" d="M364.48,322.79c.11-.68,1.19-1.11,1.74-1.52,1.17-.87,2.18-1.9,3.24-2.89,1.36-1.26,2.87-2.37,4.22-3.64.69-.64,1.03-1.42,1.73-2,1.24-1.04,2.02-2,2.57-3.51.43-1.17.68-5.22,1.27-6.35"/>
        <path class="cls-4" d="M338.52,323.29h-.34c2.48.17,5.7-2.78,7.25-4.28,2.19-2.11,4.99-3.68,6.85-6.04,1.07-1.35,1.91-2.86,2.92-4.27.53-.73,2.4-6.3,3.29-6.42"/>
        <path class="cls-4" d="M162.38,302.28c.65.83,1.1,7.56,1.64,8.46.76,1.26,2.15,1.9,2.84,3.12,1.13,2.01,2.31,3.45,4.04,5.03,1.25,1.14,2.32,2.38,3.56,3.51,1.15,1.05,2.73,2.22,3.69,3.39"/>
        <path class="cls-4" d="M332.92,302.45c-.51,1.38-2.26,5.26-3.04,6.03-1.18,1.16-2.16,2.52-3.32,3.76-.59.63-1.14,1.19-1.83,1.73-.95.76-1.58,1.74-2.5,2.51-1.37,1.14-2.98,1.83-4.34,2.99-.5.43-.97.53-1.49.83-.85.5-1.5,1.2-2.43,1.61-1.3.56-2.48,1.24-3.74,1.82"/>
        <path class="cls-4" d="M180.52,302.83c.03-.15,2.59,6.31,2.62,6.16.97-.11.39.57.96,1.21,1.38,1.56,3.15,2.81,4.83,4.08,1.47,1.11,3.25,2.33,4.89,3.12,1.34.64,2.16,1.56,3.69,2.01.93.27,1.29.67,2.02,1.14.24.16.69.16.91.33"/>
        <path class="cls-4" d="M311.28,302.45c-.46,1.11-2.19,5.74-2.78,6.82-.85,1.59-2.29,2.98-3.35,4.44-.87,1.2-1.76,2.6-3.17,3.22-.82.36-1.39.3-2.01.93-.55.56-1.47,1.32-1.9,1.91-.33.45-.52.91-.92,1.38"/>
        <path class="cls-4" d="M207.4,302.28c-.44-.21.8,3.9.8,3.9,2.14,3.28,6.33,7.31,10.19,8.72,1.5.55,3.07.93,4.6,1.49,1.14.42,1.98.5,3,1.23,1.47,1.05,3.16,1.48,4.68,2.39,1.66,1,3.56.81,5.41,1.15,1.75.32,3.59-.14,5.33.22,1.43.3,2.73.73,4.14,1.16,4.23,1.29,9.1.77,13.48.73,2.55-.02,5,.5,7.58.52s5.68-.3,8.03-1.59c2.64-1.45,4.9-3.71,7.48-5.31,2.56-1.59,5.06-3.22,7.56-4.91,1.29-.88,2.05-2.23,3-3.35.53-.62.92-1.37,1.44-1.98.39-.46,3.1-5.25,3.04-5.97"/>
        <path class="cls-4" d="M224.3,302.77c.5.17,1.41,2.18,1.75,2.6.13.53.71.8,1.06,1.23.51.4,1.02.81,1.52,1.23,1.62,1.36,3.6,2.8,5.68,3.36,1.64.45,3.42.41,5.09.68,2.64.42,5.41,1.43,8.08,1.39,3.1-.05,6.06.55,9.16.51,2.86-.04,5.8-1.16,8.5-2.1,1.79-.62,3.51-1.6,5.26-2.35.75-.32,1.65-.64,2.33-1.07,1-.63,4.5-4.92,5.2-5.8"/>
        <path class="cls-4" d="M193.88,302.28c0,2.93,1.85,3.9,2.1,6.17.82,1.49,3.64,1.85,4.98,2.79.96.67,2.24,1.33,3.03,2.11.93.92,1.62,2.1,2.56,3.03.83.82,1.8,1.36,2.67,2.07.99.81,2.22,1.37,3.19,2.2.82.7,1.4,1.24,2.39,1.64.63.26.89.23,1.53.61.55.33.91.63,1.4,1,1.06.8,1.82,1.3,3.11,1.47l.09.42"/>
        <path class="cls-4" d="M182.53,384.05c1.1,1.08,1.84,2.42,2.95,3.58s2.2,2.08,3.25,3.19c1.13,1.19,1.9,2.68,3.43,3.49.54.29,1,.59,1.51.93.71.48,1.72,1.35,2.53,1.6,2.13.66,4.38.8,6.65.77,1.4-.02,2.67-.26,4.04-.59,1.11-.27,2.27-.19,3.42-.18,2.16.02,4.15.77,6.33.76,2.46-.01,4.71-.13,7.14-.66,1.48-.32,2.82-.38,4.34-.51,1.68-.14,2.98-.59,4.56-1.01,2.63-.71,6.09-.74,8.76-.27,2.9.51,5.24-.46,8.1-.87,1.36-.19,2.7-.09,4.06-.35,2.21-.42,4.3-.5,6.54-.48,1.47.01,2.84-.05,4.28-.29,1.7-.28,3.52-.09,5.24-.09,3.54.02,6.89-.66,10.34-1.41,2.41-.52,4.83-1.46,7.29-1.6,1.56-.09,3.83-.1,5.3-.73,1.38-.59,3.18.29,4.56-.31,1.6-.7,6.58.21,8.13-.61.79-.42,2.09-1.1,2.96-1.31.99-.24,1.15-3.09,1.15-3.09.83-.53,2.85-1.92,3.13-2.96"/>
        <path class="cls-3" d="M201.33,385.54c-.37-.31-.5-.67-.33-1.09,1.38.19,3.14,1.05,4.46,1.53,2.62.96,5.32,2.14,8.1,2.54,1.68.24,3.42.54,5.11.32,2.17-.28,3.98-.29,6.14,0,4.18.56,8.36-.09,12.42-.95,2.19-.47,4.41-1.14,6.67-1.24,1.77-.08,3.57.02,5.35.02,3.31,0,6.63.09,9.94.02,1.72-.04,3.13-.74,4.74-1.24,1.86-.58,3.28-.66,5.2-.66,1.02,0,2.15.13,3.16-.03,1.38-.22,2.86-.73,4.21-1.11.87-.24,1.91-.46,2.73-.82"/>
      </g>
      <g>
        <path class="cls-9" d="M107.07,384.51c-11.54-4.58-19.35-10.39-23.45-17.45,0-10.49,3.1-21.93,9.29-34.32,6.2-12.39,13.16-20.59,20.88-24.6,4.1,0,7.91.24,11.44.71,11.82-.57,21.45-1.76,28.89-3.58l4-.86c-3.81,12.58-6.86,25.98-9.15,40.18-3.91-1.72-8.06-4.15-12.44-7.29-4.39-3.15-7.96-6.29-10.73-9.44-8.01,11.35-12.78,23.64-14.3,36.89l18.88-5c.19-3.43.67-6.96,1.43-10.58,6.58,1.81,14.49,2.72,23.74,2.72-2.48,5.34-6.2,15.59-11.15,30.75l-2.57,7.58c-4.39-1.62-7.67-6.25-9.87-13.87-6.86,3.72-15.16,6.43-24.88,8.15Z"/>
        <path class="cls-9" d="M210.6,357.77c0,8.01.95,15.01,2.86,21.02l-12.44,5.72c-6.01-1.43-9.63-5.34-10.87-11.73-2.48,2.86-5.22,5.29-8.22,7.29s-5.51,3-7.51,3c-4.48,0-8.56-2-12.23-6.01-3.67-4-5.51-7.82-5.51-11.44s.76-7.46,2.29-11.51c1.52-4.05,3.67-7.96,6.44-11.73,2.76-3.76,6.48-6.86,11.15-9.29,4.67-2.43,9.25-3.65,13.73-3.65s7.72.71,9.72,2.15l3.72-7.44c3.34,1.24,6.29,2.93,8.87,5.08,2.57,2.14,4.34,3.98,5.29,5.5l1.43,2.29c-1.43,5.43-3.81,10.77-7.15,16.02l-1.57,2.57v2.15ZM177.43,368.93c4,0,8.25-2.33,12.73-7.01,1.14-7.72,3.62-15.97,7.44-24.74-7.25,4-12.68,9.2-16.3,15.59-2.96,5.24-4.43,9.77-4.43,13.58,0,.86.09,1.72.29,2.57h.29Z"/>
        <path class="cls-9" d="M252.21,381.51c3.62-12.96,5.43-23.31,5.43-31.03,0-.67-.05-1.24-.14-1.72l-.29-3c-5.53,4.77-10.25,11.87-14.16,21.31-.57,6.86-.95,12.39-1.14,16.59l-20.59-5.15c2.67-17.73,4.24-31.75,4.72-42.04l.29-5.72,21.02-4.86-3.43,20.45c3.53-6.01,7.77-10.46,12.73-13.37,4.96-2.91,9.63-4.36,14.01-4.36,2.67,4,4.48,9.2,5.43,15.59,3.15-4.86,6.62-8.82,10.44-11.87,3.81-3.05,7.1-4.58,9.87-4.58,5.62,0,11.15,6.34,16.59,19.02-1.72,2.96-3.48,8.17-5.29,15.66-1.81,7.49-2.91,14.9-3.29,22.24-9.72-1.34-16.64-3.96-20.73-7.87,3.24-11.82,4.86-20.88,4.86-27.17v-1.29l-.29-2.57c-3.81,2.48-7.58,6.63-11.3,12.44-.95,4.29-2,11.39-3.15,21.31-4.2,1.43-10.06,2.14-17.59,2.14-1.34,0-2.67-.05-4-.14Z"/>
        <path class="cls-9" d="M336.3,370.5c1.05.1,2.67.14,4.86.14s5.53-.55,10.01-1.64c4.48-1.09,8.2-2.31,11.15-3.65l4.29-2.15c.19.95.29,1.86.29,2.72,0,3.72-1.62,7.44-4.86,11.15-4.2,4.67-11.2,8.01-21.02,10.01-1.43-.19-3.27-.52-5.51-1-2.24-.48-5.82-1.93-10.72-4.36-4.91-2.43-8.6-5.36-11.08-8.79.48-6.1,1.79-12.37,3.93-18.8,2.15-6.44,4.17-11.32,6.08-14.66l2.86-5.01c5.34-.29,10.63-1.14,15.87-2.57,5.24-1.43,9.1-2.76,11.58-4l3.86-2c3.53,2,6.31,4.72,8.37,8.15,2.05,3.43,3.22,6.34,3.5,8.72l.57,3.72c-2.67,6.01-7.15,10.63-13.44,13.87-6.29,3.24-12.87,5.1-19.73,5.58-.29,1.24-.57,2.77-.86,4.58ZM349.31,352.34c1.24-1.91,1.86-3.48,1.86-4.72s-.41-2.22-1.22-2.93c-.81-.71-1.79-1.07-2.93-1.07s-2.24.1-3.29.29c-.67,2.38-2.38,7.58-5.15,15.59,4.48-.67,8.05-3.05,10.72-7.15Z"/>
        <path class="cls-9" d="M424.24,362.35c0,5.53-3.53,10.39-10.58,14.59-7.06,4.2-17.88,7.05-32.46,8.58-4.77-6.67-8.06-14.49-9.87-23.45l3.15.71c6.96,1.81,12.32,2.72,16.09,2.72s6.82-.26,9.15-.79c2.33-.52,3.84-1.6,4.5-3.22-11.25-1.05-17.76-1.98-19.52-2.79-1.77-.81-3.31-1.64-4.65-2.5-2.19-1.43-3.29-3.96-3.29-7.58s1.02-6.96,3.07-10.01c2.05-3.05,4.67-5.48,7.87-7.29,3.19-1.81,6.89-3.34,11.08-4.58,7.24-2,15.16-3,23.74-3l3.43,24.45c-8.68-2.38-19.64-3.76-32.89-4.15,1.33,3.53,6.96,6.06,16.87,7.58,3.62.48,6.91,1.6,9.87,3.36,2.95,1.77,4.43,4.22,4.43,7.37Z"/>
      </g>
    </g>
    <g id="Layer_4">
      <g>
        <path class="cls-9" d="M274.31,210.17c-.7-.21-.8-.25-1.21-.47-.11-.05-.48-.28-.57-.35-.11-.12-.24-1.24-.04-2.44.11-.67.15-1.35.41-1.99.11-.28.26-.6.27-.88.03-.66.08-1.14-.04-1.71-.16-.82-.91-1.77-.09-2.08.54-.21.57.08.57.08,0,0-.94-3.12-1.73-4.48-.4-.69-.62-1.44-.67-2.24-.1-1.45.06-2.89.4-4.3.08-.34.23-.67.01-1.04-.25-.44-.5-.87-.95-1.14-.52-.31-.76-.71-1.52-1.01-.36-.15-.69-.31-1.01-.4-1.05-.29-1.54-.53-2.28-.84-.82-.35-1.46-.95-2.22-1.39-.44-.25-1.05-.66-1.05-.66,0,0-.49.24-.66.74-.15.42-.49.77-.73,1.14-.05.08-.4-.31-.4-.31,0,0-.36.4-.51.8-.24.66-.34,1.49-.54,1.86-.14.24-.57-.67-.57-.67l-.87,1.36-.45-3.18s-.41.19-.5.31c-.13.18-.23.86-.23.86,0,0-1.03-1.23-1.31-1.25-.19-.02-.49-1.05-.68-1.08-.32-.05-.79,1.25-.79,1.25,0,0-.06-.69-.12-.91-.08-.3-.46-1.13-.46-1.13,0,0-1.18,1.23-1.47,1.52-.49.49-1.09.86-1.64,1.28-.64.49-1.33.93-2.03,1.34-.84.48-1.6,1.07-2.28,1.75-.62.62-1.24,1.24-1.84,1.88-.35.37-.83.58-1.2.94-.91.87-.9,1.88-.57,2.94.16.51.21.58.26,1.26.02.3-.07.89-.1,1.18-.09.7-.27,1.4-.53,1.96-.24.53-.89,1.97-.9,1.99.01,0,.08.04.44.31.42.32.35.51.13.99-.84,1.86-1.68,3.74-1.41,5.84.08.61-.11,1.09-.3,1.61-.06.18.37.4.22.62-.21.28-.58.41-.89.52-.63.23-2.1-.19-2.57.16-.03.02-.07.05-.1.07h41.83c-.76-.16-1.51-.3-1.72-.31-1.39-.02-1.42.1-2.76-.31Z"/>
        <g>
          <path class="cls-9" d="M487.7,210.78c-25.04-14.09-33.91-37.04-33.91-37.04l24.52-1.04c-16.17-9.91-37.57-39.13-37.57-39.13l22.96-1.04c-16.17-6.78-26.61-26.61-26.61-26.61l10.96-.52c-10.96.52-22.96-43.3-22.96-43.3-1.04,18.78-22.43,43.3-22.43,43.3h10.96c-8.35,18.26-26.61,27.65-26.61,27.65l21.91.52c-4.17,6.78-10.43,15.65-10.43,15.65-17.22-9.39-34.43-39.65-34.43-39.65h26.61c-29.74-19.3-32.87-37.04-32.87-37.04l14.09-2.09c-18.26-11.48-27.65-46.96-27.65-46.96-7.3,28.7-27.13,48-27.13,48h13.04c-5.74,27.13-32.35,38.09-32.35,38.09l25.57,1.57c-3.13,5.22-9.39,16.17-12.52,19.3s-29-32.87-29-32.87l29-2.09c-21.39-10.96-36.52-40.17-36.52-40.17l17.22-.52c-19.3-12-30.26-54.78-30.26-54.78,0,19.83-31.3,54.26-31.3,54.26l15.13,1.04c-12,28.7-35.48,40.7-35.48,40.7l28.7,2.09c-5.74,13.04-32.35,37.57-33.91,39.13s-21.91-27.65-21.91-27.65l27.13-.52c-24.52-12.52-33.39-37.04-33.39-37.04l15.13-1.57c-18.26-11.48-28.17-47.48-28.17-47.48.52,17.74-26.61,48.52-26.61,48.52l12,.52c-6.78,25.57-32.35,32.87-31.3,36.52l25.04,2.61c-5.22,12.52-28.7,36.52-31.3,35.48-2.61-1.04-10.43-14.39-10.43-14.39h21.47c-26.01-19.6-25.64-28.92-25.64-28.92l11.48-.52c-20.35-21.39-22.96-38.61-22.96-38.61-4.17,21.39-22.43,39.13-22.43,39.13h11.48c-6.26,16.7-26.09,31.3-26.09,31.3h19.83c-9.47,18.45-34.65,37.36-36.87,38.55,2.21-.41,26.96.06,26.96.06-14.09,27.65-34.43,37.57-34.43,37.57h205.16c-.08-.3-.12-.7-.11-.96,0-.22-.04-.57.03-.93.03-.14.11-.63.15-.75.35-.96.57-1.54,1.1-2.28.39-.55.54-.91,1.17-.91.3,0,1.2.15,1.2.15,0,0,1.7-.07,1.81-.5.13-.51.26-1,.22-1.53-.02-.3-.09-.58-.18-.88-.21-.73-.21-1.1-.27-1.66-.03-.29.04-1.41.29-1.56.76-.46,1.18-.34,1.18-.34l-.16-4.26c-.05-.77.21-1.45.51-2.13.17-.38.34-.77.4-1.19.05-.38.17-.75.3-1.1.17-.43.21-.85.21-1.29,0-.7-.1-1.4.11-2.09.06-.19.03-.4.02-.6-.12-2.27.94-3.96,2.34-5.8.42-.55.79-1.03,1.08-1.47.35-.53.69-.94,1.08-1.42.52-.66,1.08-1.33,1.4-1.72.16-.2.35-.41.48-.52,1.03-.87,2.05-1.76,3.22-2.47.46-.28.73-.61.73-.61,0,0-.13-.13-.18-.22-.31-.53.4-.89.83-1.24.72-.57,1.3-.66,1.31-1.23.04-1.73.75-2.56.75-2.66-.04-.92-.03-1.29-.22-2.43-.06-.38-.36-.86-.38-1.24,0-.14.02-.27,0-.42-.05-.5-.27-.71-.22-.93.06-.26,1.05-.07,1.05-.07,0,0-.18-.76-.29-.96-.65-1.19-1.12-2.45-1.63-3.74-.95.91-1.44,2.03-2.13,3.01-.45.63-.92,1.24-1.5,1.77-.21.19-.34.41-.34.68,0,.84-.48,1.47-1.02,2.05-.36.39-.79.71-1.08,1.16-.17.27-.46.4-.73.55-1.74.98-3.55,1.83-5.37,2.66-.75.34-1.51.63-2.3.89-.14.05-.26.12-.36.22-.21.2-.71.44-1.03.59.09.1.19.21.28.3.37.38.75.55,1.18.53.22-.01.44-.08.68-.2.11-.05.22-.11.37-.12.14,0,.35.03.55.26.02.02.03.04.05.05.12.14.41.47.19.96-.16.35-.09.72.07,1.15.39.42.59.98.56,1.58-.03.59-.27,1.14-.69,1.56-.39.39-.89.62-1.42.65-.58.03-1.14-.18-1.55-.59-.31-.17-.58-.24-.86-.22-.11,0-.23.03-.34.06-.08.02-.16.04-.23.04-.36.02-.56-.19-.7-.33l-.04-.04c-.38-.38-.17-.79-.1-.92,0-.02.02-.03.03-.05.35-.73.26-1.32-.29-1.93-.03-.03-.05-.06-.08-.09-.58.7-1.07.71-1.72.04-.28-.28-.53-.5-.96-.35-.31.11-.52-.11-.69-.3-.16-.18-.27-.57-.46-.71-.22-.16-.51-.05-.79-.14-.32-.11-.6-.37-.64-.75-.04-.37-.16-.63-.61-.7-.34-.06-.58-.32-.67-.65-.09-.33-.15-.66-.2-1-.11-.79.27-1.4.98-1.86-1.17-1.29-2.46-2.7-3.13-3.44-.09-.1-.17-.2-.26-.31-.3-.37-.78-.83-.78-.83,0,0-.35.15-.45.21-.62.35-.79,1.25-.96,2.12-.02.11-.04.22-.06.32-.34,1.67.01,2.89,1.11,3.84.21.18,1.03.75,1.33.95l.65.44-.71.33s-.81.37-1.92.43h0c-.2.01-.4.01-.6,0-2.56-.11-4.98-1.03-7.17-2.72-1.32-1.02-2.59-2.4-3.23-3.5-1.3-2.25-2.64-4.96-1.93-8.64l.39-2.19.56,1.21c.78,1.7,2.37,2.65,4.24,2.55.24-.01.49-.05.75-.1,1.34-.26,2.02-.56,2.23-.97.05-.1.12-.2.12-.2,0,0-.37-.92-.66-1.56-.08-.18-.23-.52-.32-.69-.19-.39-.31-.7-.46-1.14-.04-.1-.15-.39-.18-.51-.08-.25-.18-.48-.07-.58.18-.18,1,.25,1,.25.12.05.2.1.26.14.42.22.71.37,1.12.57.17.08.33.2.5.29.66.37,1.41.63,1.41.63,0,0,.9-.43,1.37-2.43.53-2.24-.27-4.28-2.08-5.31l-1.13-.64,2.12-.29c.34-.05.67-.09,1-.11,2.65-.15,5.01.7,7.23,2.6.83.71,2.35,2.24,3.16,3.53,1.48,2.38,2.21,4.86,2.22,7.58,0,.61-.2,1.09-.38,1.66-.21.63-.51,1.4-.51,1.4,0,0-.35-.8-.43-1.01-.18-.46-.35-.77-.67-1.11-1.12-1.18-1.88-1.25-3.19-1.18-.19.01-.38.03-.58.06-.1.02-.21.03-.31.05-.84.13-1.72.26-2.09.88-.1.16-.23.5-.23.5,0,0,.37.42.76.81.1.1.2.2.28.29l3.3,3.64c.08-.02.16-.05.24-.05.77-.02,1.54-.08,2.3-.02.81.06,1.49-.25,2.15-.61,1.37-.74,2.47-1.77,3.3-3.04.62-.95,1.51-1.54,2.53-1.96.55-.23.86-.54.84-1.12-.02-.63.28-1.16.59-1.67.21-.34.43-.67.6-1.04.12-.26.34-.45.53-.66.64-.69,1.04-1.46.98-2.43-.05-.74-.01-1.49-.05-2.23-.02-.36.05-.69.2-.99.26-.51.38-1.08.84-1.51.27-.25.42-.64.55-.99.15-.43.45-.73.8-.97.65-.44,1.31-.9,2.09-1.11.2-.05.33-.17.44-.31,1.14-1.38,2.69-2.24,4.23-3.12.5-.28,1.85-.64,2.62-.95.12-.05.64-.4.64-.4,0,0-.07-.23-.11-.37-.21-.74-.25-1.5-.37-2.26-.03-.22-.06-.44.01-.65.05-.14.13-.25.3-.28.17-.02.27.06.35.2.1.18.17.37.36.48.14.09.33.53.33.53,0,0,.16-.58.18-.74.26-2.38,2.8-3.8,5.34-3.02,1.02.32,1.73,1.06,2.02,2.12.11.42.3,1.1.46,1.61.19-.22.29-.65.44-.81.13-.14.37-.56.57-.49.22.08.15.6.11.77-.13.55-.07,1.12-.17,1.67-.04.24-.03.48-.08.72-.02.07-.06.28-.06.28l1.48.18c.69-.64,1.36-1.3,2.03-1.95.19-.19.56-.63.86-.5.29.12.31.59.38.89.17.74.47,2.08.47,2.08,0,0,.41.21.57.25.9.28,1.64.64,2.46,1.06.14.07.38.15.38.15,0,0,.24-.08.37-.14.3-.13.59-.3.9-.41.19-.07.38-.13.48-.07.1.06.11.24.15.41.06.3.07.61,0,.9-.04.14-.12.36-.12.36,0,0,.22.27.35.39.17.16.35.32.54.43.53.3.68.83.9,1.32.07.15.09.33-.03.46-.16.18-.33.31-.33.31,0,0,.4.35.45.68.14,1.01.39,1.12,1.06,1.6.75.53,1.01,1.39,1.21,2.25.05.2.07.39.12.59.11.42.28.52.72.39.96-.29,1.9-.29,2.87-.03.79.22,1.59.44,2.44.41.3,0,.53-.03.53-.03,0,0,0-.29.01-.51.02-.82.51-1.28,1.35-1.2.05,0,.09,0,.13,0-.01-.26,0-.53-.12-.77-.06-.11.03-.18.12-.25.72-.52,1.22-1.21,1.41-2.13.15-.75.52-1.45.46-2.24-.02-.19.02-.41-.06-.56-.22-.41.16-.83-.03-1.23-.02-.04.08-.14.13-.2,1.08-1.26,1.28-2.93.59-4.5-.54-1.24-1.4-2.15-2.5-2.82-.17-.1-.35-.19-.48-.36.04-.24.24-.22.38-.24,1.12-.21,2.24-.38,3.39-.29.45.03.94.02,1.18-.55.07-.17.25-.2.41-.25.63-.22.75-.51.49-1.14-.03-.08-.09-.14-.04-.28.34.07.47.43.71.63.54.42.73,1.1,1.05,1.68.04.07.05.16.05.25-.04.78.46,1.2.96,1.58,1.04.79,2.22,1.21,3.5,1.33.95.09,1.89.29,2.86.07.91-.2,2.11-1.27,2.42-2.21.05-.14.09-.28.14-.42.18-.52.26-.52.63-.11.67.77.95,1.73.98,2.73.03.99.2,2.02-.24,3.97-.3,1.36-.93,3.33-1.62,4.55-.58,1.15-.9,1.59-1.54,2.68-1.36,2.29-3.08,4.22-5.11,5.84-.74.59-1.47,1.22-2.33,1.6-.85.37-1.71.76-2.67.63-.1-.01-.2,0-.33-.16.62-.31.98-.92,1.56-1.29.48-.3.66-.91.9-1.4.71-1.44,1.04-3,1.19-4.61.08-.9.09-1.78-.1-2.67-.12-.56-.27-1.11-.77-1.49.48-.38.96-.67,1.15-1.3.38-1.25-.32-2.37-1.55-2.41-.42-.01-.87.35-1.01.86-.1.33-.14.65-.59.66-.21,0-.32.24-.17.49.13.22.35.47-.14.5-.07.35-.34.57-.49.87-.68,1.38-1.08,2.85-1.22,4.4-.01.13-.02.27.02.38.09.24.08.44,0,.63.07.07.14.13.21.22.44.61.84,1.23,1.23,1.87.17.27.22.76-.02.98-.22.2-.24.2-.18.45.04.18.06.69-.08.81-.34.29-.09.62-.26.94-.12.21-.47.2-.52.42-.08.31.17.56,0,.84-.11.19-.33.39-.54.5-.84.43-1.7.83-2.62.99-.74,2.62-1.48,5.24-2.14,7.89-.29,1.16-.47,2.34-.82,3.49-.12.42-.13.89-.12,1.33.02.62-.18.97-.66,1.39-.53.48-1.07.82-1.71,1-.41.11-.84.25-1.35.17.13-.32.34-.38.49-.5.49-.38.54-.9.13-1.35-.6-.67-.6-.92.02-1.57.43-.45.71-.96.9-1.57,1.06-3.49,1.96-7.02,2.9-10.54-.16.06-.35.12-.47.17-1.36.5-2.78.8-4.18,1.13-.34.08-.69.03-1.02-.15-.97-.51-2.15-.47-2.81-1.38-.14-.2-1.4-.6-1.94-.96-.83-.57-1.07-1.22-2.01-1.42-.94-.19-1.32-.74-1.32-.74-.3.82-.71,2.16-1.2,2.88-.87,1.28-1.44,3.62-1.44,3.62,0,0,.19-.1.51-.05.49.07.77.43.73.93-.03.34-.09.68-.17,1.01-.21.91-.29,1.81-.17,2.74.11.83.03,1.68,0,2.52-.02.59.14,1.06.56,1.52,0,0,1.64,1.73,1.8,2.47.12.54-.29,1.13-.29,1.13,0,0,.57.61.76.81.42.44.82.9,1.27,1.32.61.57,1.23,1.13,1.83,1.71,1.72,1.64,2.92,3.63,4.14,5.61.04.07.06.15.1.22.53.92.69,1.64,1.31,2.29,1.1,1.16,1.12,2.48.64,3.82-.38,1.05-.46,2.09-.48,3.18-.03,2.05.17,4.09-.02,6.14-.04.45-.11,1.54-.11,1.54,0,0,.29.03.43.05.14.01.29.01.43.04.2.04.28.16.2.35-.05.11-.1.22-.15.33-.23.48-.32.99-.3,1.52.03.76.02,1.53.05,2.29.03.83,1.75.31,2.6.28.21,0,.42,0,.62-.04,1.26-.22,1.9.55,2.45,1.44.27.43.4.92.52,1.41.12.51.47,1.05.58,1.56.08.41-.21,1.38-.59,1.93h201.07Z"/>
          <path class="cls-9" d="M30.83,173.15c-.1.02-.17.04-.17.06s.07,0,.17-.06Z"/>
        </g>
        <path class="cls-2" d="M303.95,137.06c-.03-1-.31-1.96-.98-2.73-.36-.41-.45-.41-.63.11-.05.14-.09.28-.14.42-.31.94-1.51,2-2.42,2.21-.97.22-1.91.02-2.86-.07-1.28-.12-2.46-.54-3.5-1.33-.5-.38-1-.8-.96-1.58,0-.08,0-.18-.05-.25-.32-.58-.51-1.26-1.05-1.68-.24-.19-.37-.56-.71-.63-.06.14,0,.21.04.28.26.63.13.92-.49,1.14-.15.05-.34.08-.41.25-.25.57-.73.58-1.18.55-1.15-.08-2.27.08-3.39.29-.14.03-.34,0-.38.24.12.18.31.26.48.36,1.1.67,1.95,1.58,2.5,2.82.69,1.57.49,3.24-.59,4.5-.05.06-.15.17-.13.2.19.4-.19.82.03,1.23.08.15.05.37.06.56.06.79-.3,1.49-.46,2.24-.19.92-.69,1.6-1.41,2.13-.09.07-.18.14-.12.25.13.24.11.51.12.77-.05,0-.09,0-.13,0-.83-.08-1.32.38-1.35,1.2,0,.22-.01.51-.01.51,0,0-.23.02-.53.03-.84.03-1.65-.19-2.44-.41-.97-.27-1.91-.26-2.87.03-.44.13-.61.03-.72-.39-.05-.19-.08-.39-.12-.59-.2-.85-.46-1.72-1.21-2.25-.67-.47-.92-.58-1.06-1.6-.04-.33-.45-.68-.45-.68,0,0,.17-.13.33-.31.12-.13.1-.31.03-.46-.23-.49-.38-1.02-.9-1.32-.19-.11-.37-.27-.54-.43-.13-.12-.35-.39-.35-.39,0,0,.08-.22.12-.36.08-.29.07-.6,0-.9-.03-.17-.05-.35-.15-.41-.11-.07-.3,0-.48.07-.31.11-.6.28-.9.41-.13.06-.37.14-.37.14,0,0-.24-.08-.38-.15-.83-.42-1.56-.79-2.46-1.06-.16-.05-.57-.25-.57-.25,0,0-.31-1.34-.47-2.08-.07-.3-.08-.77-.38-.89-.3-.13-.67.32-.86.5-.68.65-1.34,1.32-2.03,1.95l-1.48-.18s.04-.21.06-.28c.06-.23.04-.48.08-.72.1-.55.04-1.12.17-1.67.04-.18.1-.69-.11-.77-.2-.08-.44.35-.57.49-.15.16-.26.59-.44.81-.16-.51-.34-1.19-.46-1.61-.29-1.06-1-1.8-2.02-2.12-2.54-.79-5.08.64-5.34,3.02-.02.16-.18.74-.18.74,0,0-.18-.44-.33-.53-.19-.11-.26-.3-.36-.48-.07-.14-.18-.22-.35-.2-.16.02-.25.13-.3.28-.07.22-.05.43-.01.65.12.75.15,1.52.37,2.26.04.14.11.37.11.37,0,0-.52.35-.64.4-.78.32-2.12.67-2.62.95-1.54.88-3.08,1.74-4.23,3.12-.12.14-.25.25-.44.31-.78.22-1.44.67-2.09,1.11-.35.24-.65.54-.8.97-.13.35-.28.74-.55.99-.46.43-.58,1-.84,1.51-.15.3-.22.63-.2.99.04.74,0,1.49.05,2.23.07.97-.34,1.74-.98,2.43-.19.21-.41.41-.53.66-.17.36-.39.69-.6,1.04-.31.51-.62,1.04-.59,1.67.02.58-.29.9-.84,1.12-1.02.42-1.91,1.01-2.53,1.96-.83,1.27-1.94,2.3-3.3,3.04-.66.36-1.33.67-2.15.61-.76-.06-1.53,0-2.3.02-.08,0-.16.03-.24.05l-3.3-3.64c-.09-.1-.18-.19-.28-.29-.39-.39-.76-.81-.76-.81,0,0,.13-.34.23-.5.37-.62,1.25-.75,2.09-.88.11-.02.21-.03.31-.05.2-.03.39-.05.58-.06,1.31-.08,2.07,0,3.19,1.18.32.33.49.65.67,1.11.08.21.43,1.01.43,1.01,0,0,.3-.77.51-1.4.18-.57.38-1.05.38-1.66,0-2.72-.74-5.2-2.22-7.58-.8-1.29-2.33-2.81-3.16-3.53-2.21-1.9-4.58-2.76-7.23-2.6-.33.02-.67.05-1,.11l-2.12.29,1.13.64c1.81,1.03,2.61,3.07,2.08,5.31-.47,2-1.37,2.43-1.37,2.43,0,0-.75-.26-1.41-.63-.17-.09-.33-.21-.5-.29-.41-.19-.7-.35-1.12-.57-.07-.03-.14-.08-.26-.14,0,0-.81-.44-1-.25-.1.1,0,.33.07.58.04.12.15.41.18.51.15.44.27.75.46,1.14.09.18.24.51.32.69.29.64.66,1.56.66,1.56,0,0-.07.1-.12.2-.2.41-.89.71-2.23.97-.25.05-.5.08-.75.1-1.87.11-3.46-.84-4.24-2.55l-.56-1.21-.39,2.19c-.71,3.68.62,6.39,1.93,8.64.64,1.1,1.91,2.48,3.23,3.5,2.19,1.69,4.6,2.61,7.17,2.72.2,0,.4,0,.6,0h0c1.11-.06,1.88-.42,1.92-.43l.71-.33-.65-.44c-.3-.2-1.11-.76-1.33-.95-1.1-.94-1.45-2.16-1.11-3.84.02-.1.04-.21.06-.32.17-.87.34-1.77.96-2.12.11-.06.45-.21.45-.21,0,0,.48.47.78.83.09.11.18.21.26.31.67.74,1.96,2.15,3.13,3.44-.71.46-1.08,1.07-.98,1.86.05.34.11.67.2,1,.09.33.33.59.67.65.44.07.57.33.61.7.04.38.31.64.64.75.28.09.57-.02.79.14.18.13.3.53.46.71.17.19.37.41.69.3.43-.15.69.06.96.35.65.67,1.14.65,1.72-.04.03.03.05.06.08.09.55.61.63,1.2.29,1.93,0,.02-.02.03-.03.05-.07.13-.29.54.1.92l.04.04c.13.14.34.35.7.33.07,0,.15-.02.23-.04.11-.04.23-.06.34-.06.28-.02.55.05.86.22.41.41.97.63,1.55.59.53-.03,1.03-.26,1.42-.65.42-.42.66-.97.69-1.56.03-.6-.17-1.16-.56-1.58-.16-.43-.23-.8-.07-1.15.22-.49-.07-.82-.19-.96-.02-.02-.03-.03-.05-.05-.19-.23-.4-.27-.55-.26-.15,0-.27.07-.37.12-.24.12-.47.19-.68.2-.42.02-.81-.15-1.18-.53-.1-.1-.19-.2-.28-.3.32-.14.82-.38,1.03-.59.1-.1.22-.17.36-.22.78-.25,1.55-.54,2.3-.89,1.82-.83,3.63-1.68,5.37-2.66.27-.15.56-.28.73-.55.28-.45.72-.78,1.08-1.16.55-.58,1.01-1.21,1.02-2.05,0-.27.13-.49.34-.68.58-.52,1.05-1.13,1.5-1.77.7-.98,1.19-2.1,2.13-3.01.51,1.29.98,2.55,1.63,3.74.11.2.29.96.29.96,0,0-.99-.19-1.05.07-.05.22.17.43.22.93.02.15,0,.28,0,.42.01.38.31.86.38,1.24.19,1.14.18,1.51.22,2.43,0,.1-.71.94-.75,2.66-.01.56-.59.65-1.31,1.23-.43.34-1.14.71-.83,1.24.05.08.18.22.18.22,0,0-.27.34-.73.61-1.17.71-2.18,1.6-3.22,2.47-.13.11-.32.31-.48.52-.31.39-.87,1.06-1.4,1.72-.39.49-.72.89-1.08,1.42-.29.44-.66.92-1.08,1.47-1.41,1.84-2.46,3.53-2.34,5.8.01.2.04.41-.02.6-.21.69-.11,1.39-.11,2.09,0,.44-.04.86-.21,1.29-.14.35-.25.72-.3,1.1-.06.41-.23.8-.4,1.19-.3.68-.57,1.36-.51,2.13l.16,4.26s-.41-.12-1.18.34c-.24.15-.32,1.26-.29,1.56.06.56.06.93.27,1.66.09.3.15.57.18.88.04.53-.09,1.03-.22,1.53-.11.43-1.81.5-1.81.5,0,0-.9-.15-1.2-.15-.63,0-.78.36-1.17.91-.53.74-.75,1.32-1.1,2.28-.05.13-.13.61-.15.75-.07.36-.02.7-.03.93,0,.27.04.66.11.96.05.2.12.36.2.4.64.33,1.28.66,2,.81,1.24.25,3.43.13,4.63-.33.51-.19,1.17-.56,1.63-.89.03-.02.07-.05.1-.07.47-.35,1.95.07,2.57-.16.32-.11.69-.24.89-.52.16-.22-.28-.44-.22-.62.18-.52.38-1.01.3-1.61-.27-2.1.57-3.98,1.41-5.84.22-.49.29-.67-.13-.99-.37-.28-.43-.31-.44-.31,0-.02.66-1.46.9-1.99.25-.56.44-1.26.53-1.96.04-.28.12-.88.1-1.18-.05-.67-.1-.74-.26-1.26-.33-1.07-.35-2.08.57-2.94.37-.35.85-.56,1.2-.94.6-.64,1.22-1.26,1.84-1.88.68-.68,1.45-1.26,2.28-1.75.71-.41,1.39-.85,2.03-1.34.55-.42,1.14-.78,1.64-1.28.29-.29,1.47-1.52,1.47-1.52,0,0,.39.83.46,1.13.06.22.12.91.12.91,0,0,.48-1.3.79-1.25.19.03.48,1.06.68,1.08.29.02,1.31,1.25,1.31,1.25,0,0,.1-.68.23-.86.09-.12.5-.31.5-.31l.45,3.18.87-1.36s.44.91.57.67c.2-.36.3-1.2.54-1.86.15-.4.51-.8.51-.8,0,0,.35.39.4.31.24-.38.58-.73.73-1.14.17-.5.66-.74.66-.74,0,0,.61.41,1.05.66.76.44,1.4,1.04,2.22,1.39.75.32,1.24.55,2.28.84.33.09.65.26,1.01.4.76.3,1,.69,1.52,1.01.46.28.7.71.95,1.14.21.37.07.69-.01,1.04-.34,1.42-.5,2.85-.4,4.3.05.79.27,1.55.67,2.24.79,1.35,1.73,4.48,1.73,4.48,0,0-.03-.28-.57-.08-.82.31-.07,1.26.09,2.08.11.56.06,1.04.04,1.71-.01.28-.16.6-.27.88-.26.63-.3,1.32-.41,1.99-.2,1.2-.07,2.31.04,2.44.09.08.46.3.57.35.41.22.52.26,1.21.47,1.34.4,1.37.28,2.76.31.21,0,.96.15,1.72.31.79.17,1.6.35,1.8.4.67.18,1.59.3,2.22.31.25,0,.63.02.87-.01.74-.11,1.92-.06,2.56-.33.13-.05.26-.19.38-.36.37-.55.67-1.52.59-1.93-.1-.51-.46-1.05-.58-1.56-.12-.49-.25-.98-.52-1.41-.55-.89-1.2-1.65-2.45-1.44-.2.03-.41.03-.62.04-.85.04-2.57.56-2.6-.28-.03-.76-.02-1.53-.05-2.29-.02-.53.07-1.04.3-1.52.05-.11.1-.22.15-.33.08-.19,0-.31-.2-.35-.14-.03-.29-.03-.43-.04-.14-.01-.43-.05-.43-.05,0,0,.07-1.1.11-1.54.2-2.05,0-4.09.02-6.14.01-1.09.1-2.13.48-3.18.48-1.34.46-2.67-.64-3.82-.61-.65-.78-1.36-1.31-2.29-.04-.07-.05-.15-.1-.22-1.21-1.98-2.42-3.97-4.14-5.61-.6-.58-1.22-1.14-1.83-1.71-.45-.42-.85-.88-1.27-1.32-.19-.2-.76-.81-.76-.81,0,0,.41-.59.29-1.13-.16-.74-1.8-2.47-1.8-2.47-.42-.46-.58-.93-.56-1.52.02-.84.1-1.69,0-2.52-.12-.94-.05-1.84.17-2.74.08-.33.15-.67.17-1.01.04-.5-.24-.86-.73-.93-.32-.05-.51.05-.51.05,0,0,.56-2.34,1.44-3.62.49-.72.91-2.05,1.2-2.88,0,0,.38.55,1.32.74.95.19,1.18.84,2.01,1.42.53.37,1.8.77,1.94.96.66.91,1.84.87,2.81,1.38.33.18.68.23,1.02.15,1.41-.33,2.83-.64,4.18-1.13.12-.04.31-.11.47-.17-.94,3.52-1.84,7.05-2.9,10.54-.18.61-.47,1.12-.9,1.57-.63.65-.62.9-.02,1.57.41.46.36.97-.13,1.35-.16.12-.36.19-.49.5.51.08.94-.06,1.35-.17.64-.18,1.17-.52,1.71-1,.48-.43.68-.78.66-1.39-.02-.44,0-.91.12-1.33.34-1.15.53-2.33.82-3.49.65-2.65,1.39-5.27,2.14-7.89.92-.16,1.78-.56,2.62-.99.22-.11.43-.31.54-.5.17-.28-.08-.53,0-.84.05-.22.41-.21.52-.42.17-.32-.07-.65.26-.94.14-.12.12-.63.08-.81-.05-.25-.04-.25.18-.45.24-.22.19-.7.02-.98-.39-.64-.8-1.26-1.23-1.87-.06-.09-.14-.14-.21-.22.07-.19.09-.39,0-.63-.04-.11-.03-.25-.02-.38.13-1.55.54-3.02,1.22-4.4.15-.3.42-.52.49-.87.49-.04.27-.29.14-.5-.15-.25-.04-.48.17-.49.45,0,.49-.32.59-.66.15-.51.59-.87,1.01-.86,1.22.03,1.93,1.16,1.55,2.41-.19.62-.67.92-1.15,1.3.51.38.65.93.77,1.49.2.88.18,1.77.1,2.67-.15,1.61-.47,3.17-1.19,4.61-.25.5-.42,1.1-.9,1.4-.58.36-.94.98-1.56,1.29.13.16.24.15.33.16.95.13,1.82-.26,2.67-.63.86-.37,1.59-1.01,2.33-1.6,2.03-1.62,3.76-3.55,5.11-5.84.64-1.09.96-1.53,1.54-2.68.68-1.21,1.32-3.19,1.62-4.55.43-1.95.26-2.98.24-3.97Z"/>
      </g>
    </g>
  </g>
</svg>